<svg width="12" height="23" fill="none" xmlns="http://www.w3.org/2000/svg"><g opacity=".7"><path d="M11.74 10.86L1.46.26a.828.828 0 00-1.21 0c-.34.35-.34.91 0 1.26l9.66 9.98-9.66 9.97c-.34.35-.34.91 0 1.26.16.18.39.27.61.27a.8.8 0 00.6-.27l10.28-10.6c.16-.17.26-.4.26-.63 0-.24-.1-.47-.26-.64z" fill="#363838" fill-rule="evenodd"/><path d="M1.46.26a.828.828 0 00-1.21 0c-.34.35-.34.91 0 1.26l9.66 9.98-9.66 9.97c-.34.35-.34.91 0 1.26.16.18.39.27.61.27a.8.8 0 00.6-.27l10.28-10.6c.16-.17.26-.4.26-.63 0-.24-.1-.47-.26-.64L1.46.26z"/></g></svg>