<svg width="14" height="14" fill="none" xmlns="http://www.w3.org/2000/svg"><path d="M12.81.18c.81.82 1.06 1.82 1.12 2.94.07 1.16.07 4.63 0 5.78-.06 1.13-.31 2.1-1.12 2.94-.81.81-1.81 1.06-2.94 1.12-1.16.07-4.62.07-5.78 0-1.13-.06-2.09-.31-2.94-1.12C.34 11 .09 10.03.03 8.9c-.07-1.15-.07-4.62 0-5.78C.09 2 .34 1 1.15.18 2-.63 2.96-.88 4.09-.94 5.25-1 8.71-1 9.87-.94 11-.88 12-.63 12.81.18zm-1.69 11.28c.59-.25 1.09-.71 1.31-1.34.32-.77.3-2.47.29-3.59 0-.2-.01-.38-.01-.53 0-.15.01-.33.01-.52.01-1.11.03-2.81-.29-3.61-.25-.59-.72-1.09-1.31-1.31-.8-.32-2.5-.3-3.61-.29-.19 0-.37.01-.51.01-.16 0-.34-.01-.54-.01C5.34.26 3.64.24 2.87.56c-.62.25-1.09.72-1.34 1.31-.32.8-.3 2.5-.29 3.61 0 .19.01.37.01.52 0 .15-.01.33-.01.53-.01 1.12-.03 2.82.29 3.59.25.63.72 1.09 1.34 1.34.77.32 2.47.3 3.59.29h1.05c1.11.01 2.81.03 3.61-.29zm-.41-10.03c.47 0 .85.38.85.85s-.38.84-.85.84c-.46 0-.84-.37-.84-.84s.38-.85.84-.85zM3.4 6C3.4 4.03 5 2.4 7 2.4c1.96 0 3.59 1.63 3.59 3.6 0 2-1.63 3.59-3.59 3.59C5 9.59 3.4 8 3.4 6zm1.25 0c0 1.31 1.06 2.34 2.35 2.34 1.28 0 2.31-1.03 2.31-2.34 0-1.29-1.03-2.32-2.31-2.32-1.32 0-2.35 1.03-2.35 2.32z" fill="#707070" fill-rule="evenodd"/></svg>