<svg width="16" height="15" fill="none" xmlns="http://www.w3.org/2000/svg"><path d="M7.75-.75c4.28 0 7.75 3.46 7.75 7.75a7.75 7.75 0 01-7.75 7.75c-.82 0-1.6-.1-2.32-.35.32-.5.78-1.34.97-2.03.1-.34.47-1.84.47-1.84.25.5 1 .9 1.78.9 2.35 0 4.03-2.15 4.03-4.81 0-2.56-2.09-4.5-4.78-4.5-3.34 0-5.12 2.25-5.12 4.69 0 1.15.59 2.56 1.56 3.03.16.06.25.03.28-.13 0-.09.16-.62.22-.87 0-.06 0-.16-.06-.22-.32-.37-.57-1.09-.57-1.78 0-1.69 1.29-3.34 3.5-3.34 1.88 0 3.22 1.28 3.22 3.15 0 2.1-1.06 3.53-2.43 3.53-.75 0-1.32-.62-1.16-1.37.22-.94.66-1.94.66-2.6 0-.59-.32-1.09-.97-1.09-.78 0-1.41.81-1.41 1.88 0 .68.22 1.15.22 1.15S5.09 11.4 4.93 12c-.15.68-.09 1.62-.03 2.21A7.702 7.702 0 010 7C0 2.71 3.46-.75 7.75-.75z" fill="#707070" fill-rule="evenodd"/></svg>